<svg aria-hidden="true" style="width:0;height:0;position:absolute;overflow:hidden" xmlns="http://www.w3.org/2000/svg"><defs><symbol id="icon-close" viewBox="0 0 32 32"><path d="M1.646 32a1.646 1.646 0 0 1-1.163-2.811L29.19.482a1.646 1.646 0 1 1 2.328 2.329L2.811 31.517A1.65 1.65 0 0 1 1.646 32z"/><path d="M30.355 32a1.63 1.63 0 0 1-1.163-.483L.483 2.811A1.647 1.647 0 0 1 2.812.482l28.707 28.707A1.646 1.646 0 0 1 30.356 32z"/></symbol><symbol id="icon-location" viewBox="0 0 26 32"><path d="M12.075 0C5.417 0 0 4.99 0 11.123 0 18.832 12.087 32 12.087 32S24.15 18.453 24.15 11.123C24.15 4.99 18.733 0 12.075 0zm3.643 14.38c-1.005.925-2.324 1.388-3.643 1.388s-2.639-.463-3.643-1.388c-2.009-1.85-2.009-4.861 0-6.712.973-.896 2.267-1.39 3.643-1.39s2.67.494 3.643 1.39c2.009 1.851 2.009 4.862 0 6.712z"/></symbol><symbol id="icon-ticket" viewBox="0 0 45 32"><path d="M5.02 1.569H0v30.118h5.02V1.569zm12.625 0h-5.02v30.118h5.02V1.569zm7.605 0h-5.019v30.118h5.019V1.569zm19.927 0h-7.453v30.118h7.453V1.569zm-35.138 0H7.605v30.118h2.434V1.569zm20.079 0h-2.434v30.118h2.434V1.569zm5.019 0h-2.434v30.118h2.434V1.569z"/></symbol><symbol id="point" viewBox="0 0 25 32"><path d="M12.308 0c6.786 0 12.308 5.468 12.308 12.188a12 12 0 0 1-2.455 7.306l-9.094 12.128c-.023.029-.057.041-.083.067-.454.482-1.11.361-1.434-.067-2.619-3.46-7.419-9.922-9.264-12.359l-.001-.003-.011-.015a12.021 12.021 0 0 1-2.273-7.057C.001 5.468 5.522 0 12.309 0zm0 18.762c3.654 0 6.64-2.957 6.64-6.575s-2.986-6.575-6.64-6.575c-3.654 0-6.64 2.957-6.64 6.575s2.986 6.575 6.64 6.575z"/></symbol></defs></svg>