<?xml version="1.0" standalone="no"?>
<!DOCTYPE svg PUBLIC "-//W3C//DTD SVG 20010904//EN"
 "http://www.w3.org/TR/2001/REC-SVG-20010904/DTD/svg10.dtd">
<svg version="1.0" xmlns="http://www.w3.org/2000/svg"
 width="754.000000pt" height="754.000000pt" viewBox="0 0 754.000000 754.000000"
 preserveAspectRatio="xMidYMid meet">
<metadata>
Created by potrace 1.14, written by Peter Selinger 2001-2017
</metadata>
<g transform="translate(0.000000,754.000000) scale(0.100000,-0.100000)"
fill="#000000" stroke="none">
<path d="M2015 7214 c-42 -38 -51 -73 -37 -136 14 -59 57 -105 137 -146 l58
-29 -109 -57 c-60 -32 -123 -65 -141 -74 -17 -9 -30 -20 -27 -24 3 -4 0 -8 -7
-8 -22 0 -153 -64 -175 -86 -12 -11 -32 -29 -46 -40 -54 -43 -114 -188 -163
-399 -23 -96 -25 -125 -21 -230 3 -66 12 -147 20 -180 34 -146 86 -334 105
-375 11 -25 22 -56 24 -70 3 -14 17 -77 32 -140 29 -127 30 -137 41 -295 13
-176 8 -447 -10 -570 -2 -14 -33 -36 -107 -74 -57 -29 -146 -80 -197 -112
l-92 -58 1 42 c4 89 3 92 -63 136 -65 44 -78 47 -126 30 -50 -17 -105 -103
-117 -183 -3 -22 -7 -41 -8 -42 -1 -1 -28 5 -61 13 -53 13 -63 13 -100 -1 -61
-24 -115 -80 -140 -145 -30 -76 -30 -109 -2 -172 29 -66 52 -86 143 -128 55
-25 78 -43 107 -82 53 -71 149 -108 292 -114 52 -2 84 -10 120 -28 27 -14 65
-27 83 -30 52 -9 55 -17 37 -98 -50 -223 -64 -348 -61 -543 2 -168 5 -198 24
-251 13 -33 28 -83 35 -111 15 -57 27 -82 68 -138 15 -21 28 -43 28 -48 0 -5
-15 -36 -34 -67 -19 -32 -37 -69 -41 -82 -3 -13 -10 -33 -15 -44 -5 -11 -24
-63 -44 -115 -19 -52 -41 -108 -47 -125 -16 -41 -21 -97 -23 -250 -1 -125 0
-133 31 -203 17 -41 56 -105 85 -143 44 -58 68 -79 146 -124 51 -30 97 -55
102 -55 16 0 19 -16 9 -60 -14 -60 -18 -191 -8 -212 19 -36 72 -56 169 -65
148 -13 477 -9 555 7 22 5 62 11 89 15 98 12 167 33 187 57 17 19 19 32 14 78
-5 52 -4 57 30 99 19 24 35 56 36 70 2 71 6 102 15 110 26 26 165 55 312 66
31 3 77 12 102 20 58 19 232 14 400 -12 19 -3 49 -5 65 -4 111 4 222 0 257
-10 40 -10 71 -24 268 -116 47 -22 114 -53 150 -69 36 -15 112 -53 170 -83
205 -106 285 -146 315 -158 51 -21 238 -99 285 -120 25 -11 65 -28 90 -38 25
-10 59 -23 75 -31 162 -69 217 -86 260 -81 38 3 48 1 61 -17 22 -32 95 -45
173 -29 35 7 66 11 69 8 3 -3 7 -29 10 -58 2 -29 9 -60 16 -68 31 -44 190 -96
351 -116 67 -9 368 -11 430 -3 53 6 123 41 158 78 24 25 28 36 24 66 -3 20 -9
42 -15 49 -6 6 -13 32 -17 57 -6 45 -95 225 -127 260 -10 11 -27 41 -37 67
-40 101 -152 326 -179 361 -16 20 -32 46 -36 56 -40 110 -331 505 -461 626
-67 62 -175 203 -189 245 -3 11 -21 29 -38 39 -82 46 -282 305 -329 426 -11
30 -25 64 -29 75 -5 11 -29 72 -53 135 -67 171 -90 218 -108 223 -10 3 -15 13
-13 28 1 13 3 42 3 64 1 37 6 43 57 80 85 60 211 193 244 257 11 20 24 39 29
42 13 8 69 181 77 236 3 25 7 137 8 250 l2 205 -42 154 c-35 127 -85 279 -124
376 -4 11 -18 47 -30 80 -42 115 -82 199 -298 620 -44 87 -52 110 -56 175 -7
103 -11 111 -65 147 -76 52 -89 68 -89 107 0 77 -22 134 -67 174 -83 73 -155
94 -155 47 0 -23 -15 -18 -30 9 -7 14 -19 27 -27 30 -18 7 -53 -11 -53 -27 0
-7 -10 -13 -21 -14 -26 -2 -51 -27 -74 -76 -15 -32 -16 -57 -10 -212 4 -96 4
-175 0 -175 -4 0 -20 11 -37 25 -30 25 -41 28 -88 26 -40 -3 -53 -6 -93 -26
-32 -16 -40 -27 -52 -69 -14 -50 -18 -79 -16 -103 0 -7 27 -39 59 -71 33 -33
76 -88 97 -123 21 -35 60 -96 87 -136 26 -40 48 -81 48 -92 0 -18 -5 -20 -35
-16 -33 4 -45 12 -143 104 -24 23 -70 62 -102 87 -63 50 -171 187 -215 274
-26 51 -28 63 -30 205 -3 153 -21 273 -52 350 -9 22 -27 64 -40 93 -13 29 -23
57 -23 63 0 6 -5 20 -12 32 -6 12 -13 38 -15 57 -6 49 -65 168 -140 280 -49
74 -82 110 -150 165 -48 39 -88 75 -90 80 -1 6 15 18 36 28 21 11 55 39 76 63
33 40 36 49 31 86 -4 26 -17 53 -40 78 -18 20 -39 54 -46 74 -13 41 -13 41
-43 22 -12 -8 -49 -22 -81 -30 -92 -24 -132 -56 -151 -118 -8 -28 -15 -65 -15
-80 0 -26 -3 -29 -22 -23 -13 4 -43 18 -68 31 -25 13 -76 32 -115 43 -38 10
-83 24 -100 31 -16 7 -46 14 -65 17 -54 7 -58 9 -85 62 -33 66 -105 107 -105
61 0 -10 -15 -35 -34 -53 -28 -28 -44 -35 -92 -41 -33 -4 -68 -10 -79 -12 -11
-2 -49 -7 -83 -11 l-64 -6 4 44 c5 49 -9 91 -53 160 -36 56 -89 83 -166 84
-47 0 -59 -4 -88 -31z"/>
</g>
</svg>
