<svg width="768" height="1341" viewBox="0 0 768 1341" fill="none" xmlns="http://www.w3.org/2000/svg">
<rect width="768" height="2582" fill="#0E0E0E"/>
<circle cx="86" cy="168" r="62.5" transform="rotate(22.7945 86 168)" stroke="#212121"/>
<circle cx="681" cy="1224" r="62.5" stroke="#212121"/>
<g filter="url(#filter0_b_11503_3)">
<circle cx="86" cy="168" r="40" fill="url(#paint0_linear_11503_3)" fill-opacity="0.03"/>
</g>
<g filter="url(#filter1_b_11503_3)">
<circle cx="681" cy="1224" r="40" fill="url(#paint1_linear_11503_3)" fill-opacity="0.03"/>
</g>
<mask id="path-6-inside-1_11503_3" fill="white">
<path d="M263 1458.5C263 1427.31 256.857 1396.43 244.921 1367.61C232.986 1338.8 215.492 1312.62 193.438 1290.56C171.384 1268.51 145.202 1251.01 116.387 1239.08C87.5725 1227.14 56.6889 1221 25.5 1221L25.5 1458.5H263Z"/>
</mask>
<path d="M263 1458.5C263 1427.31 256.857 1396.43 244.921 1367.61C232.986 1338.8 215.492 1312.62 193.438 1290.56C171.384 1268.51 145.202 1251.01 116.387 1239.08C87.5725 1227.14 56.6889 1221 25.5 1221L25.5 1458.5H263Z" stroke="#212121" stroke-width="2" mask="url(#path-6-inside-1_11503_3)"/>
<mask id="path-7-inside-2_11503_3" fill="white">
<path d="M742.5 420C711.311 420 680.427 426.143 651.613 438.079C622.798 450.014 596.616 467.508 574.562 489.562C552.508 511.616 535.014 537.798 523.079 566.613C511.143 595.428 505 626.311 505 657.5L742.5 657.5L742.5 420Z"/>
</mask>
<path d="M742.5 420C711.311 420 680.427 426.143 651.613 438.079C622.798 450.014 596.616 467.508 574.562 489.562C552.508 511.616 535.014 537.798 523.079 566.613C511.143 595.428 505 626.311 505 657.5L742.5 657.5L742.5 420Z" stroke="#212121" stroke-width="2" mask="url(#path-7-inside-2_11503_3)"/>
<defs>
<filter id="filter0_b_11503_3" x="26" y="108" width="120" height="120" filterUnits="userSpaceOnUse" color-interpolation-filters="sRGB">
<feFlood flood-opacity="0" result="BackgroundImageFix"/>
<feGaussianBlur in="BackgroundImage" stdDeviation="10"/>
<feComposite in2="SourceAlpha" operator="in" result="effect1_backgroundBlur_11503_3"/>
<feBlend mode="normal" in="SourceGraphic" in2="effect1_backgroundBlur_11503_3" result="shape"/>
</filter>
<filter id="filter1_b_11503_3" x="621" y="1164" width="120" height="120" filterUnits="userSpaceOnUse" color-interpolation-filters="sRGB">
<feFlood flood-opacity="0" result="BackgroundImageFix"/>
<feGaussianBlur in="BackgroundImage" stdDeviation="10"/>
<feComposite in2="SourceAlpha" operator="in" result="effect1_backgroundBlur_11503_3"/>
<feBlend mode="normal" in="SourceGraphic" in2="effect1_backgroundBlur_11503_3" result="shape"/>
</filter>
<linearGradient id="paint0_linear_11503_3" x1="50.7059" y1="116.235" x2="109.529" y2="225.059" gradientUnits="userSpaceOnUse">
<stop stop-color="#C4C4C4"/>
<stop offset="1" stop-color="#C4C4C4" stop-opacity="0"/>
</linearGradient>
<linearGradient id="paint1_linear_11503_3" x1="645.706" y1="1172.24" x2="704.529" y2="1281.06" gradientUnits="userSpaceOnUse">
<stop stop-color="#C4C4C4"/>
<stop offset="1" stop-color="#C4C4C4" stop-opacity="0"/>
</linearGradient>
</defs>
</svg>
