<svg width="1280" height="2002" viewBox="0 0 1280 2002" fill="none" xmlns="http://www.w3.org/2000/svg">
<rect width="1280" height="2106" fill="#0E0E0E"/>
<circle cx="115" cy="404" r="107.5" stroke="#212121"/>
<circle cx="115" cy="1930" r="107.5" stroke="#212121"/>
<circle cx="1165" cy="929" r="107.5" stroke="#212121"/>
<g filter="url(#filter0_b_11502_2)">
<circle cx="115" cy="404" r="68" fill="url(#paint0_linear_11502_2)" fill-opacity="0.03"/>
</g>
<g filter="url(#filter1_b_11502_2)">
<path d="M183 1930C183 1921.07 181.241 1912.23 177.824 1903.98C174.406 1895.73 169.398 1888.23 163.083 1881.92C156.769 1875.6 149.273 1870.59 141.022 1867.18C132.772 1863.76 123.93 1862 115 1862C106.07 1862 97.2276 1863.76 88.9775 1867.18C80.7274 1870.59 73.2311 1875.6 66.9167 1881.92C60.6023 1888.23 55.5935 1895.73 52.1762 1903.98C48.7588 1912.23 47 1921.07 47 1930L115 1930H183Z" fill="url(#paint1_linear_11502_2)" fill-opacity="0.03"/>
</g>
<g filter="url(#filter2_b_11502_2)">
<circle cx="1165" cy="929" r="68" fill="url(#paint2_linear_11502_2)" fill-opacity="0.03"/>
</g>
<mask id="path-8-inside-1_11502_2" fill="white">
<path d="M1250 44C1206.14 44 1162.71 52.6391 1122.18 69.4242C1081.66 86.2093 1044.84 110.812 1013.83 141.826C982.812 172.841 958.21 209.661 941.424 250.184C924.639 290.706 916 334.139 916 378L1250 378L1250 44Z"/>
</mask>
<path d="M1250 44C1206.14 44 1162.71 52.6391 1122.18 69.4242C1081.66 86.2093 1044.84 110.812 1013.83 141.826C982.812 172.841 958.21 209.661 941.424 250.184C924.639 290.706 916 334.139 916 378L1250 378L1250 44Z" stroke="#212121" stroke-width="2" mask="url(#path-8-inside-1_11502_2)"/>
<mask id="path-9-inside-2_11502_2" fill="white">
<path d="M1250 1438C1206.14 1438 1162.71 1446.64 1122.18 1463.42C1081.66 1480.21 1044.84 1504.81 1013.83 1535.83C982.812 1566.84 958.21 1603.66 941.424 1644.18C924.639 1684.71 916 1728.14 916 1772L1250 1772L1250 1438Z"/>
</mask>
<path d="M1250 1438C1206.14 1438 1162.71 1446.64 1122.18 1463.42C1081.66 1480.21 1044.84 1504.81 1013.83 1535.83C982.812 1566.84 958.21 1603.66 941.424 1644.18C924.639 1684.71 916 1728.14 916 1772L1250 1772L1250 1438Z" stroke="#212121" stroke-width="2" mask="url(#path-9-inside-2_11502_2)"/>
<mask id="path-10-inside-3_11502_2" fill="white">
<path d="M364 1142C364 1098.14 355.361 1054.71 338.576 1014.18C321.791 973.661 297.188 936.841 266.174 905.826C235.159 874.812 198.339 850.209 157.816 833.424C117.294 816.639 73.8615 808 30 808L30 1142H364Z"/>
</mask>
<path d="M364 1142C364 1098.14 355.361 1054.71 338.576 1014.18C321.791 973.661 297.188 936.841 266.174 905.826C235.159 874.812 198.339 850.209 157.816 833.424C117.294 816.639 73.8615 808 30 808L30 1142H364Z" stroke="#212121" stroke-width="2" mask="url(#path-10-inside-3_11502_2)"/>
<defs>
<filter id="filter0_b_11502_2" x="27" y="316" width="176" height="176" filterUnits="userSpaceOnUse" color-interpolation-filters="sRGB">
<feFlood flood-opacity="0" result="BackgroundImageFix"/>
<feGaussianBlur in="BackgroundImage" stdDeviation="10"/>
<feComposite in2="SourceAlpha" operator="in" result="effect1_backgroundBlur_11502_2"/>
<feBlend mode="normal" in="SourceGraphic" in2="effect1_backgroundBlur_11502_2" result="shape"/>
</filter>
<filter id="filter1_b_11502_2" x="27" y="1842" width="176" height="108" filterUnits="userSpaceOnUse" color-interpolation-filters="sRGB">
<feFlood flood-opacity="0" result="BackgroundImageFix"/>
<feGaussianBlur in="BackgroundImage" stdDeviation="10"/>
<feComposite in2="SourceAlpha" operator="in" result="effect1_backgroundBlur_11502_2"/>
<feBlend mode="normal" in="SourceGraphic" in2="effect1_backgroundBlur_11502_2" result="shape"/>
</filter>
<filter id="filter2_b_11502_2" x="1077" y="841" width="176" height="176" filterUnits="userSpaceOnUse" color-interpolation-filters="sRGB">
<feFlood flood-opacity="0" result="BackgroundImageFix"/>
<feGaussianBlur in="BackgroundImage" stdDeviation="10"/>
<feComposite in2="SourceAlpha" operator="in" result="effect1_backgroundBlur_11502_2"/>
<feBlend mode="normal" in="SourceGraphic" in2="effect1_backgroundBlur_11502_2" result="shape"/>
</filter>
<linearGradient id="paint0_linear_11502_2" x1="55" y1="316" x2="155" y2="501" gradientUnits="userSpaceOnUse">
<stop stop-color="#C4C4C4"/>
<stop offset="1" stop-color="#C4C4C4" stop-opacity="0"/>
</linearGradient>
<linearGradient id="paint1_linear_11502_2" x1="55" y1="1842" x2="155" y2="2027" gradientUnits="userSpaceOnUse">
<stop stop-color="#C4C4C4"/>
<stop offset="1" stop-color="#C4C4C4" stop-opacity="0"/>
</linearGradient>
<linearGradient id="paint2_linear_11502_2" x1="1105" y1="841" x2="1205" y2="1026" gradientUnits="userSpaceOnUse">
<stop stop-color="#C4C4C4"/>
<stop offset="1" stop-color="#C4C4C4" stop-opacity="0"/>
</linearGradient>
</defs>
</svg>
