<symbol id="icon-logo" viewBox="0 0 110 32">
    <path fill="#fff" style="fill: var(--color1, #fff)"
        d="M34.347 24.196c-1.034-1.662-3.16-2.494-6.381-2.494h-1.015v10.255h1.015c2.489 0 4.326-0.567 5.512-1.703 0.999-0.97 1.497-2.204 1.497-3.701-0.002-0.89-0.212-1.676-0.629-2.358zM16.909 24.32c1.035 1.663 3.161 2.494 6.379 2.494h1.016v-10.255h-1.015c-2.489 0-4.326 0.567-5.512 1.703-0.995 0.969-1.494 2.202-1.494 3.7 0 0.889 0.209 1.676 0.626 2.359zM0 0.179h13.519v2.717h-8.666v1.357h7.2v2.578h-7.2v1.374h8.666v2.717h-13.519v-10.742zM20.319 0.166h17.493l-8.746 10.973-8.747-10.973zM29.066 9.781l7.226-9.044h-14.426l7.2 9.044zM44.8 0.179h13.519v2.716h-8.666v1.358h7.2v2.578h-7.201v1.374h8.668v2.716h-13.521v-10.741zM66.639 10.904v-10.739h1.039l12.96 7.3v-7.3h0.986v10.742l-14.986-0.003zM95.786 10.92v-8.025h-7.014v-2.716h14.987v2.716h-7.014v8.025h-0.96zM7.972 18.698c1.173 0 2.108 0.104 2.799 0.309 0.797 0.225 1.466 0.577 1.929 1.015 0.463 0.437 0.701 0.941 0.684 1.454 0.006 0.494-0.235 0.979-0.693 1.397-0.463 0.428-1.118 0.777-1.892 1.011 0.962 0.196 1.805 0.551 2.426 1.018 0.644 0.463 0.993 1.042 0.986 1.636 0.007 0.519-0.238 1.030-0.706 1.473-0.459 0.441-1.107 0.806-1.88 1.057-0.41 0.128-0.851 0.221-1.306 0.278-0.48 0.062-1.12 0.093-1.92 0.093h-8.214v-10.742h7.787zM39.239 28.661c-1.395-0.705-2.084-1.762-2.067-3.172h4.348c-0.019 0.587 0.284 1.035 0.906 1.343 0.622 0.309 1.494 0.463 2.614 0.463 0.924 0 1.653-0.088 2.186-0.263 0.534-0.174 0.8-0.441 0.8-0.802 0-0.298-0.27-0.514-0.813-0.649-0.519-0.129-1.059-0.225-1.613-0.285-0.533-0.057-0.862-0.092-0.986-0.104-1.381-0.148-2.589-0.347-3.774-0.607l0.227 0.042c-0.968-0.209-1.83-0.554-2.507-1.004-0.675-0.452-1.013-1.048-1.013-1.79 0-0.74 0.338-1.37 1.013-1.89s1.578-0.908 2.707-1.165c1.072-0.246 2.302-0.387 3.566-0.387 0.045 0 0.090 0 0.134 0.001l-0.007-0c1.618 0 3.018 0.175 4.2 0.525 1.183 0.35 2.112 0.879 2.787 1.589 0.313 0.3 0.522 0.633 0.614 0.98 0.070 0.305 0.105 0.611 0.106 0.919h-4.345c0-0.556-0.257-0.966-0.772-1.227-0.516-0.263-1.316-0.394-2.401-0.394-0.872 0-1.546 0.088-2.026 0.263s-0.721 0.412-0.721 0.71c0 0.33 0.32 0.572 0.96 0.726 0.787 0.179 1.599 0.319 2.428 0.416 1.6 0.185 2.848 0.363 3.746 0.533 0.905 0.172 1.71 0.484 2.333 0.903 0.658 0.433 0.986 1.039 0.986 1.821 0 0.742-0.355 1.379-1.066 1.914-0.712 0.535-1.649 0.943-2.814 1.226-1.099 0.27-2.361 0.425-3.659 0.425-0.040 0-0.081-0-0.121-0l0.006 0c-2.577-0.001-4.564-0.355-5.959-1.059zM63.786 29.44v-8.025h-7.014v-2.717h14.987v2.717h-7.014v8.025h-0.96zM76.8 18.698h13.519v2.717h-8.668v1.357h7.2v2.579h-7.2v1.373h8.668v2.717h-13.521v-10.742zM110.345 29.44h-14.268v-10.742h7.228c1.547 0 2.808 0.16 3.787 0.479 0.934 0.295 1.709 0.732 2.24 1.266 0.535 0.541 0.811 1.152 0.8 1.774 0.012 0.782-0.439 1.542-1.28 2.153-0.806 0.615-1.941 1.057-3.228 1.258l4.721 3.812zM97.065 19.641v5.539h6.852l-6.852-5.539zM97.065 28.871h11.413l-3.893-3.134-0.828 0.015h-6.692v3.118zM97.758 19.271l7.254 5.865c1.164-0.135 2.211-0.501 2.959-1.034 0.77-0.525 1.186-1.194 1.173-1.884 0.011-0.543-0.238-1.077-0.719-1.543-0.48-0.463-1.185-0.833-2.027-1.065-0.782-0.226-1.804-0.34-3.066-0.34h-5.572z">
    </path>
</symbol>


<svg id="triangle" width="13" height="8" viewBox="0 0 13 8" fill="none" xmlns="http://www.w3.org/2000/svg">
    <path d="M6.5 8L0.00480968 0.5L12.9952 0.499999L6.5 8Z" fill="#939393" />
</svg>

<svg id="location" width="6" height="9" viewBox="0 0 6 9" fill="none" xmlns="http://www.w3.org/2000/svg">
    <path
        d="M3 0C1.34581 0 0 1.40339 0 3.12836C0 5.29645 3.00295 9 3.00295 9C3.00295 9 6 5.18983 6 3.12836C6 1.40339 4.65424 0 3 0ZM3.90516 4.04434C3.65558 4.30455 3.32781 4.43469 3 4.43469C2.67224 4.43469 2.34437 4.30455 2.09489 4.04434C1.59577 3.52392 1.59577 2.67709 2.09489 2.15662C2.33658 1.90448 2.65807 1.76561 3 1.76561C3.34193 1.76561 3.66337 1.90453 3.90516 2.15662C4.40428 2.67709 4.40428 3.52392 3.90516 4.04434Z"
        fill="white" />
</svg>