<svg id="logo-icon" width="100" height="29" viewBox="0 0 100 29" fill="none" xmlns="http://www.w3.org/2000/svg">
    <path
        d="M31.1266 21.9284C30.19 20.4216 28.2626 19.668 25.3443 19.6677H24.4236V28.9622H25.3443C27.5999 28.9622 29.2647 28.4477 30.3388 27.4186C31.2437 26.5402 31.6961 25.4225 31.6961 24.0655C31.694 23.2584 31.5041 22.546 31.1266 21.9284Z"
        fill="white" />
    <path
        d="M15.3241 22.0398C16.2617 23.5466 18.1889 24.3 21.1055 24.3H22.0263V15.0056H21.1055C18.85 15.0056 17.1852 15.5201 16.1111 16.5492C15.2089 17.4272 14.7575 18.5449 14.757 19.9022C14.757 20.7085 14.946 21.421 15.3241 22.0398Z"
        fill="white" />
    <path d="M0 0.16217H12.2525V2.62379H4.39833V3.8546H10.9233V6.19034H4.39833V7.43513H12.2525V9.89675H0V0.16217Z"
        fill="white" />
    <path
        d="M18.4142 0.150024H34.2675L26.3408 10.0944L18.4142 0.150024ZM26.3408 8.8636L32.89 0.667523H19.8158L26.3408 8.8636Z"
        fill="white" />
    <path
        d="M40.5991 0.161682H52.8516V2.6233H44.9975V3.85411H51.5225V6.18985H44.9975V7.43465H52.8516V9.89627H40.5991V0.161682Z"
        fill="white" />
    <path d="M60.3915 9.88228V0.150024H61.334L73.079 6.76563V0.150024H73.9731V9.88461L60.3915 9.88228Z" fill="white" />
    <path d="M86.8058 9.89627V2.6233H80.45V0.161682H94.0316V2.6233H87.6758V9.89627H86.8058Z" fill="white" />
    <path
        d="M7.225 16.9455C8.28833 16.9455 9.13416 17.0387 9.7625 17.2252C10.4844 17.429 11.0908 17.7479 11.5103 18.1443C11.9299 18.5408 12.1451 18.9983 12.1308 19.4631C12.1352 19.9111 11.9171 20.3505 11.5025 20.7288C11.0811 21.1169 10.4889 21.4331 9.78666 21.645C10.6587 21.8229 11.4227 22.1436 11.9858 22.5681C12.5703 22.9878 12.8862 23.5115 12.88 24.0506C12.8862 24.5217 12.6643 24.9844 12.2396 25.3863C11.8241 25.7855 11.2372 26.1156 10.5358 26.3444C10.1635 26.4601 9.76487 26.5449 9.35166 26.5962C8.91666 26.6521 8.33666 26.6801 7.61166 26.6801H0.168335V16.9455H7.225Z"
        fill="white" />
    <path
        d="M35.5604 25.9737C34.2956 25.335 33.6713 24.3769 33.6874 23.0995H37.6266C37.6105 23.631 37.8844 24.0366 38.4483 24.3163C39.0122 24.5961 39.8016 24.7359 40.8166 24.7359C41.6544 24.7359 42.3149 24.6567 42.7983 24.4982C43.2816 24.3396 43.5233 24.0972 43.5233 23.7709C43.5233 23.5005 43.2776 23.3047 42.7862 23.1834C42.3169 23.0661 41.8265 22.9793 41.3241 22.9247C40.8408 22.8734 40.5427 22.8423 40.4299 22.8314C39.3351 22.7142 38.2597 22.5427 37.2158 22.3186C36.3393 22.13 35.5584 21.8175 34.9441 21.4095C34.3319 20.9992 34.0258 20.4584 34.0258 19.787C34.0258 19.1157 34.3319 18.5446 34.9441 18.0737C35.5563 17.6028 36.374 17.2508 37.397 17.0177C38.4646 16.7799 39.6003 16.6613 40.7441 16.6681C42.2102 16.6681 43.479 16.8266 44.5503 17.1436C45.6217 17.4606 46.4635 17.9408 47.0758 18.5842C47.3599 18.8563 47.5487 19.1581 47.6316 19.4724C47.6951 19.7482 47.7273 20.0262 47.7283 20.3046H43.7891C43.7891 19.801 43.5555 19.4304 43.0883 19.1926C42.621 18.9549 41.896 18.836 40.9133 18.836C40.1238 18.836 39.5116 18.9152 39.0766 19.0737C38.6416 19.2323 38.4241 19.4467 38.4241 19.7171C38.4241 20.0155 38.7141 20.2346 39.2941 20.3745C40.0066 20.5374 40.7425 20.6638 41.4933 20.7521C42.9433 20.92 44.0751 21.0808 44.8887 21.2346C45.7089 21.3911 46.4399 21.674 47.0033 22.0529C47.5994 22.4445 47.8974 22.9946 47.8974 23.7033C47.8974 24.3746 47.5752 24.9527 46.9308 25.4376C46.2863 25.9225 45.4365 26.2931 44.3812 26.5495C43.2974 26.8092 42.1345 26.94 40.9616 26.9341C38.6255 26.9326 36.8251 26.6125 35.5604 25.9737Z"
        fill="white" />
    <path d="M57.8058 26.6801V19.4071H51.45V16.9455H65.0316V19.4071H58.6758V26.6801H57.8058Z" fill="white" />
    <path
        d="M69.5991 16.9455H81.8516V19.4071H73.9975V20.6379H80.5224V22.9737H73.9975V24.2185H81.8516V26.6801H69.5991V16.9455Z"
        fill="white" />
    <path
        d="M100 26.6801H87.0708V16.9455H93.62C95.0216 16.9455 96.1655 17.09 97.0516 17.3791C97.8983 17.6456 98.6009 18.0425 99.0816 18.526C99.5669 19.0151 99.8173 19.5704 99.8066 20.1344C99.8181 20.8425 99.4085 21.5314 98.6466 22.0855C97.9165 22.6421 96.8881 23.043 95.7225 23.2254L100 26.6801ZM87.965 17.7987V22.8198H94.1758L87.965 17.7987ZM87.965 26.1626H98.3083L94.78 23.3233L94.0308 23.3373H87.965V26.1626ZM88.5933 17.463L95.1666 22.7779C96.222 22.6557 97.1707 22.3243 97.8491 21.8408C98.5468 21.3646 98.9244 20.7587 98.9125 20.1344C98.9222 19.6423 98.6963 19.1582 98.26 18.7358C97.8254 18.3164 97.1865 17.9806 96.4233 17.7707C95.7144 17.5656 94.788 17.463 93.6441 17.463H88.5933Z"
        fill="white" />
    =======
    <svg width="229" height="193" viewBox="0 0 229 193" fill="red" xmlns="http://www.w3.org/2000/svg">
        <g filter="url(#filter0_b_5_2243)">
            <path
                d="M5.94213e-05 193C30.0728 193 59.851 188.008 87.6346 178.309C115.418 168.61 140.663 154.393 161.928 136.472C183.192 118.55 200.06 97.2737 211.568 73.8579C223.077 50.4421 229 25.3451 229 -1.52588e-05L6.78576e-05 5.24888e-06L5.94213e-05 193Z"
                fill="url(#paint0_linear_5_2243)" fill-opacity="0.03" />
        </g>
        <path
            d="M58.4197 94.0485C57.1433 90.3929 54.5166 88.5647 50.5396 88.5639H49.2848V111.113H50.5396C53.6135 111.113 55.8823 109.865 57.3461 107.368C58.5793 105.237 59.1959 102.526 59.1959 99.2334C59.1929 97.2751 58.9342 95.5468 58.4197 94.0485Z"
            fill="white" />
        <path
            d="M36.8838 94.3189C38.1617 97.9745 40.788 99.8023 44.7629 99.8023H46.0177V77.2531H44.7629C41.689 77.2531 39.4201 78.5014 37.9564 80.9981C36.7268 83.1283 36.1117 85.8399 36.111 89.1328C36.111 91.0889 36.3686 92.8175 36.8838 94.3189Z"
            fill="white" />
        <path
            d="M16 41.2404H32.6978V47.2125H21.9941V50.1986H30.8864V55.8653H21.9941V58.8853H32.6978V64.8574H16V41.2404Z"
            fill="white" />
        <path
            d="M41.0951 41.2121H62.7001L51.8976 65.3381L41.0951 41.2121ZM51.8976 62.3521L60.8228 42.4676H43.0053L51.8976 62.3521Z"
            fill="white" />
        <path
            d="M71.3289 41.2404H88.0267V47.2125H77.323V50.1986H86.2153V55.8653H77.323V58.8853H88.0267V64.8574H71.3289V41.2404Z"
            fill="white" />
        <path d="M98.3023 64.8235V41.2121H99.5867L115.593 57.2622V41.2121H116.811V64.8291L98.3023 64.8235Z"
            fill="white" />
        <path d="M134.3 64.8574V47.2125H125.638V41.2404H144.147V47.2125H135.485V64.8574H134.3Z" fill="white" />
        <path
            d="M25.8463 81.9595C27.2954 81.9595 28.4481 82.1857 29.3044 82.6381C30.2883 83.1326 31.1146 83.9062 31.6864 84.868C32.2581 85.8297 32.5515 86.9397 32.532 88.0673C32.538 89.1543 32.2408 90.2202 31.6757 91.1382C31.1015 92.0797 30.2944 92.8468 29.3374 93.3608C30.5257 93.7926 31.5669 94.5706 32.3344 95.6003C33.131 96.6186 33.5615 97.8893 33.553 99.1972C33.5614 100.34 33.2591 101.463 32.6802 102.438C32.1141 103.406 31.3141 104.207 30.3583 104.762C29.8509 105.043 29.3077 105.248 28.7445 105.373C28.1517 105.509 27.3613 105.576 26.3733 105.576H16.2294V81.9595H25.8463Z"
            fill="white" />
        <path
            d="M64.4621 103.863C62.7385 102.313 61.8877 99.989 61.9097 96.8898H67.278C67.2561 98.1792 67.6293 99.1633 68.3978 99.8419C69.1662 100.521 70.2421 100.86 71.6254 100.86C72.7671 100.86 73.6673 100.668 74.326 100.283C74.9847 99.8985 75.314 99.3103 75.314 98.5186C75.314 97.8625 74.9792 97.3875 74.3095 97.0934C73.67 96.8088 73.0017 96.5982 72.317 96.4657C71.6583 96.3412 71.2521 96.2658 71.0984 96.2394C69.6063 95.9551 68.1408 95.5388 66.7181 94.9952C65.5237 94.5377 64.4594 93.7794 63.6223 92.7896C62.7879 91.7943 62.3708 90.4822 62.3708 88.8534C62.3708 87.2247 62.7879 85.8391 63.6223 84.6967C64.4566 83.5543 65.5709 82.7004 66.9651 82.1348C68.42 81.5578 69.9677 81.27 71.5266 81.2865C73.5246 81.2865 75.2536 81.6711 76.7137 82.4402C78.1738 83.2093 79.321 84.3744 80.1554 85.9353C80.5426 86.5954 80.7999 87.3275 80.9129 88.09C80.9994 88.7593 81.0434 89.4337 81.0446 90.109H75.6763C75.6763 88.8874 75.3579 87.9882 74.7212 87.4113C74.0845 86.8345 73.0964 86.546 71.7571 86.546C70.6812 86.546 69.8469 86.7383 69.2541 87.1229C68.6613 87.5075 68.3648 88.0278 68.3648 88.6838C68.3648 89.4077 68.7601 89.9393 69.5505 90.2786C70.5215 90.674 71.5244 90.9805 72.5475 91.1948C74.5236 91.602 76.066 91.9922 77.1748 92.3655C78.2926 92.7451 79.2889 93.4314 80.0566 94.3505C80.869 95.3006 81.2752 96.6353 81.2752 98.3546C81.2752 99.9833 80.836 101.386 79.9578 102.562C79.0795 103.739 77.9213 104.638 76.4832 105.26C75.0063 105.89 73.4214 106.207 71.823 106.193C68.6393 106.189 66.1857 105.413 64.4621 103.863Z"
            fill="white" />
        <path d="M94.7783 105.576V87.9316H86.1165V81.9595H104.626V87.9316H95.964V105.576H94.7783Z" fill="white" />
        <path
            d="M110.85 81.9595H127.548V87.9316H116.844V90.9176H125.737V96.5844H116.844V99.6044H127.548V105.576H110.85V81.9595Z"
            fill="white" />
        <path
            d="M152.281 105.576H134.661V81.9595H143.586C145.496 81.9595 147.055 82.3101 148.263 83.0114C149.417 83.658 150.374 84.621 151.029 85.7938C151.691 86.9805 152.032 88.3278 152.017 89.6961C152.033 91.414 151.475 93.0853 150.436 94.4297C149.441 95.7801 148.04 96.7526 146.451 97.1952L152.281 105.576ZM135.879 84.0294V96.2111H144.344L135.879 84.0294ZM135.879 104.321H149.975L145.167 97.4327L144.146 97.4666H135.879V104.321ZM136.736 83.215L145.694 96.1093C147.132 95.813 148.425 95.009 149.35 93.8358C150.3 92.6806 150.815 91.2107 150.799 89.6961C150.812 88.5021 150.504 87.3277 149.91 86.3028C149.317 85.2853 148.447 84.4708 147.407 83.9615C146.44 83.4638 145.178 83.215 143.619 83.215H136.736Z"
            fill="white" />
        <defs>
            <filter id="filter0_b_5_2243" x="-29.9999" y="-30" width="289" height="253" filterUnits="userSpaceOnUse"
                color-interpolation-filters="sRGB">
                <feFlood flood-opacity="0" result="BackgroundImageFix" />
                <feGaussianBlur in="BackgroundImage" stdDeviation="15" />
                <feComposite in2="SourceAlpha" operator="in" result="effect1_backgroundBlur_5_2243" />
                <feBlend mode="normal" in="SourceGraphic" in2="effect1_backgroundBlur_5_2243" result="shape" />
            </filter>
            <linearGradient id="paint0_linear_5_2243" x1="269.924" y1="-72.6502" x2="-48.139" y2="290.923"
                gradientUnits="userSpaceOnUse">
                <stop stop-color="#C4C4C4" />
                <stop offset="1" stop-color="#C4C4C4" stop-opacity="0" />
            </linearGradient>
        </defs>
        >>>>>>> dev
    </svg>
    <svg id="lupa" width="12" height="12" viewBox="0 0 12 12" fill="none" xmlns="http://www.w3.org/2000/svg">
        <path
            d="M1.50899 1.50905C2.48211 0.535922 3.77593 0 5.15211 0C6.52829 0 7.82211 0.535922 8.79521 1.50905C9.76831 2.48215 10.3043 3.77597 10.3043 5.15213C10.3043 6.41032 9.85604 7.59949 9.03554 8.53786L11.8969 11.3992C12.0343 11.5366 12.0343 11.7595 11.8969 11.8969C11.8281 11.9656 11.7381 12 11.648 12C11.558 12 11.4679 11.9656 11.3992 11.8969L8.53785 9.03558C7.59948 9.85606 6.41031 10.3043 5.15211 10.3043C3.77591 10.3043 2.48213 9.76838 1.50901 8.79525C0.535907 7.82215 -1.43051e-05 6.52833 -1.43051e-05 5.15215C-1.43051e-05 3.77597 0.535884 2.48215 1.50899 1.50905ZM2.0067 8.29755C3.7411 10.0319 6.5631 10.0319 8.29749 8.29755C10.0319 6.56318 10.0319 3.74114 8.29749 2.00677C7.43021 1.13948 6.29134 0.705984 5.15209 0.705984C4.01312 0.705984 2.87377 1.1397 2.00668 2.00677C0.272352 3.74112 0.272352 6.56316 2.0067 8.29755Z"
            fill="#939393" />
    </svg>
    <svg id="triangle" width="13" height="8" viewBox="0 0 13 8" fill="none" xmlns="http://www.w3.org/2000/svg">
        <path d="M6.5 8L0.00480968 0.5L12.9952 0.499999L6.5 8Z" fill="#939393" />
    </svg>
    <svg id="location" width="6" height="9" viewBox="0 0 6 9" fill="none" xmlns="http://www.w3.org/2000/svg">
        <path
            d="M3 0C1.34581 0 0 1.40339 0 3.12836C0 5.29645 3.00295 9 3.00295 9C3.00295 9 6 5.18983 6 3.12836C6 1.40339 4.65424 0 3 0ZM3.90516 4.04434C3.65558 4.30455 3.32781 4.43469 3 4.43469C2.67224 4.43469 2.34437 4.30455 2.09489 4.04434C1.59577 3.52392 1.59577 2.67709 2.09489 2.15662C2.33658 1.90448 2.65807 1.76561 3 1.76561C3.34193 1.76561 3.66337 1.90453 3.90516 2.15662C4.40428 2.67709 4.40428 3.52392 3.90516 4.04434Z"
            fill="white" />
    </svg>