<svg aria-hidden="true" style="position:absolute;width:0;height:0;overflow:hidden" xmlns="http://www.w3.org/2000/svg">
    <defs>
        <symbol id="icon-close" viewBox="0 0 32 32">
            <path
                d="M1.646 32c-.422 0-.843-.16-1.163-.483-.643-.643-.643-1.685 0-2.328L29.19.482c.643-.643 1.685-.643 2.328 0s.643 1.685 0 2.329L2.811 31.517c-.323.321-.744.483-1.165.483z" />
            <path
                d="M30.355 32c-.422 0-.843-.16-1.163-.483L.483 2.811C-.16 2.168-.16 1.125.483.482s1.685-.643 2.329 0l28.707 28.707c.643.643.643 1.685 0 2.328-.323.321-.744.483-1.163.483z" />
        </symbol>
        <symbol id="icon-location" viewBox="0 0 26 32">
            <path
                d="M12.075 0C5.417 0 0 4.99 0 11.123 0 18.832 12.087 32 12.087 32S24.15 18.453 24.15 11.123C24.15 4.99 18.733 0 12.075 0zm3.643 14.38c-1.005.925-2.324 1.388-3.643 1.388s-2.639-.463-3.643-1.388c-2.009-1.85-2.009-4.861 0-6.712.973-.896 2.267-1.39 3.643-1.39s2.67.494 3.643 1.39c2.009 1.851 2.009 4.862 0 6.712z" />
        </symbol>
        <symbol id="icon-ticket" viewBox="0 0 45 32">
            <path
                d="M5.02 1.569H0v30.118h5.02V1.569zM17.645 1.569h-5.02v30.118h5.02V1.569zM25.25 1.569h-5.019v30.118h5.019V1.569zM45.177 1.569h-7.453v30.118h7.453V1.569zM10.039 1.569H7.605v30.118h2.434V1.569zM30.118 1.569h-2.434v30.118h2.434V1.569zM35.137 1.569h-2.434v30.118h2.434V1.569z" />
        </symbol>
        <symbol id="point" viewBox="0 0 25 32">
            <path
                d="M12.308 0c6.786 0 12.308 5.468 12.308 12.188 0 2.659-0.848 5.186-2.455 7.306l-9.094 12.128c-0.023 0.029-0.057 0.041-0.083 0.067-0.454 0.482-1.11 0.361-1.434-0.067-2.619-3.46-7.419-9.922-9.264-12.359 0 0-0.001-0.002-0.001-0.003l-0.011-0.015c-1.487-2.069-2.273-4.509-2.273-7.057 0-6.72 5.521-12.188 12.308-12.188zM12.308 18.762c3.654 0 6.64-2.957 6.64-6.575s-2.986-6.575-6.64-6.575c-3.654 0-6.64 2.957-6.64 6.575s2.986 6.575 6.64 6.575z">
            </path>
        </symbol>
    </defs>
</svg>